<svg xmlns="http://www.w3.org/2000/svg" width="138.133" height="116.323" viewBox="0 0 138.133 116.323">
  <path id="cart" d="M9.816,7a5.816,5.816,0,0,0,0,11.632h12.9L37.988,79.7a11.544,11.544,0,0,0,11.269,8.724h66.7a11.453,11.453,0,0,0,11.087-8.542l15.085-55.435H44.713l2.908,11.632h79.427L115.961,76.794h-66.7L33.989,15.724A11.535,11.535,0,0,0,22.721,7Zm98.874,81.426a17.448,17.448,0,1,0,17.448,17.448A17.537,17.537,0,0,0,108.691,88.426Zm-52.345,0a17.448,17.448,0,1,0,17.448,17.448A17.537,17.537,0,0,0,56.345,88.426Zm0,11.632a5.816,5.816,0,1,1-5.816,5.816A5.73,5.73,0,0,1,56.345,100.058Zm52.345,0a5.816,5.816,0,1,1-5.816,5.816A5.73,5.73,0,0,1,108.691,100.058Z" transform="translate(-4 -7)" fill="#ffd800"/>
</svg>
