<svg id="done" xmlns="http://www.w3.org/2000/svg" xmlns:xlink="http://www.w3.org/1999/xlink" width="52.65" height="52.65" viewBox="0 0 52.65 52.65">
  <defs>
    <linearGradient id="linear-gradient" x1="0.877" y1="0.185" x2="0.187" y2="0.9" gradientUnits="objectBoundingBox">
      <stop offset="0" stop-color="#3059e9"/>
      <stop offset="0.271" stop-color="#2748d6"/>
      <stop offset="0.539" stop-color="#1c34bc"/>
      <stop offset="1" stop-color="#345ff1"/>
    </linearGradient>
  </defs>
  <g id="Group_10" data-name="Group 10">
    <path id="Path_1" data-name="Path 1" d="M8.2,45.364a26.211,26.211,0,1,0-5.631-8.352A26.189,26.189,0,0,0,8.2,45.364ZM26.78,4.338A22.444,22.444,0,1,1,4.337,26.781,22.444,22.444,0,0,1,26.78,4.338Z" transform="translate(-0.455 -0.456)" fill="url(#linear-gradient)"/>
    <path id="Path_2" data-name="Path 2" d="M26.325,52.651A26.331,26.331,0,0,1,16.077,2.071a26.331,26.331,0,0,1,20.5,48.51A26.165,26.165,0,0,1,26.325,52.651Zm0-52.561A26.241,26.241,0,0,0,16.112,50.5,26.241,26.241,0,0,0,36.538,2.154,26.073,26.073,0,0,0,26.325.091Zm0,48.724a22.488,22.488,0,0,1-15.9-38.39,22.489,22.489,0,1,1,31.8,31.8A22.341,22.341,0,0,1,26.325,48.815Zm0-44.887A22.4,22.4,0,0,0,10.487,42.164,22.4,22.4,0,1,0,42.164,10.488,22.252,22.252,0,0,0,26.325,3.927Z" transform="translate(0 -0.001)" fill="url(#linear-gradient)"/>
  </g>
  <g id="Group_11" data-name="Group 11" transform="translate(12.401 16.15)">
    <path id="Path_3" data-name="Path 3" d="M147.029,200.541a1.918,1.918,0,0,0,2.713,0l16.423-16.423a1.918,1.918,0,1,0-2.713-2.713l-15.067,15.067-6.144-6.144a1.918,1.918,0,0,0-2.713,2.713Z" transform="translate(-138.922 -180.798)" fill="url(#linear-gradient)"/>
    <path id="Path_4" data-name="Path 4" d="M147.939,200.691a1.95,1.95,0,0,1-1.388-.575l-7.5-7.5a1.963,1.963,0,1,1,2.776-2.776l6.112,6.112,15.035-15.035a1.963,1.963,0,1,1,2.776,2.776l-16.423,16.423A1.95,1.95,0,0,1,147.939,200.691Zm-7.5-11.337a1.874,1.874,0,0,0-1.325,3.2l7.5,7.5a1.874,1.874,0,0,0,2.65,0l16.423-16.423a1.873,1.873,0,0,0-2.65-2.649l-15.1,15.1-6.176-6.176A1.861,1.861,0,0,0,140.439,189.354Z" transform="translate(-138.477 -180.342)" fill="url(#linear-gradient)"/>
  </g>
</svg>
