<svg xmlns="http://www.w3.org/2000/svg" width="26.256" height="26.259" viewBox="0 0 26.256 26.259">
  <path id="home" d="M26.051,11.421l0,0L15.338.708a2.417,2.417,0,0,0-3.419,0L1.213,11.413l-.011.011A2.416,2.416,0,0,0,2.81,15.543c.025,0,.05,0,.075,0h.427v7.883a2.833,2.833,0,0,0,2.829,2.829h4.191a.769.769,0,0,0,.769-.769v-6.18a1.292,1.292,0,0,1,1.291-1.291h2.472a1.292,1.292,0,0,1,1.291,1.291v6.18a.769.769,0,0,0,.769.769h4.191a2.832,2.832,0,0,0,2.829-2.829V15.547h.4a2.418,2.418,0,0,0,1.711-4.126Zm-1.089,2.33a.873.873,0,0,1-.621.258H23.175a.769.769,0,0,0-.769.769v8.652a1.292,1.292,0,0,1-1.291,1.291H17.694V19.309a2.833,2.833,0,0,0-2.829-2.829H12.392a2.833,2.833,0,0,0-2.83,2.829V24.72H6.141A1.292,1.292,0,0,1,4.85,23.429V14.777a.769.769,0,0,0-.769-.769H2.936l-.036,0a.878.878,0,0,1-.605-1.5h0L13.007,1.8a.878.878,0,0,1,1.243,0L24.958,12.5l.005,0a.881.881,0,0,1,0,1.242Zm0,0" transform="translate(-0.5 0.001)" fill="#ffd800"/>
</svg>
