<svg xmlns="http://www.w3.org/2000/svg" width="27.946" height="20.96" viewBox="0 0 27.946 20.96">
  <path id="mail" d="M25.326,59.882H2.62A2.623,2.623,0,0,0,0,62.5v15.72a2.623,2.623,0,0,0,2.62,2.62H25.326a2.623,2.623,0,0,0,2.62-2.62V62.5A2.623,2.623,0,0,0,25.326,59.882Zm0,1.747a.868.868,0,0,1,.335.068s-10.856,10.13-11.688,10.13S2.285,61.7,2.285,61.7a.869.869,0,0,1,.335-.068Zm0,17.466H2.62a.874.874,0,0,1-.873-.873V63.542L13.4,73.642a.875.875,0,0,0,1.145,0L26.2,63.542v14.68A.874.874,0,0,1,25.326,79.095Z" transform="translate(0 -59.882)" fill="#ffd800"/>
</svg>
