<svg xmlns="http://www.w3.org/2000/svg" width="23.185" height="23.272" viewBox="0 0 23.185 23.272">
  <g id="telephone" transform="translate(-0.912 0)">
    <path id="Path_6" data-name="Path 6" d="M5.61,15.47A24.69,24.69,0,0,0,13.822,21.9a12.782,12.782,0,0,0,4.6,1.36c.111,0,.217.01.328.01A3.806,3.806,0,0,0,21.7,22a.105.105,0,0,0,.019-.024,12.425,12.425,0,0,1,.931-.964c.227-.217.458-.444.68-.675a2.328,2.328,0,0,0-.01-3.467l-2.9-2.9a2.346,2.346,0,0,0-1.7-.781A2.425,2.425,0,0,0,17,13.97L15.279,15.7c-.159-.092-.323-.174-.477-.251a5.963,5.963,0,0,1-.53-.289,18.271,18.271,0,0,1-4.364-3.974A10.522,10.522,0,0,1,8.431,8.83c.453-.41.878-.839,1.288-1.259.145-.149.294-.3.444-.448a2.472,2.472,0,0,0,.8-1.736,2.453,2.453,0,0,0-.8-1.736L8.725,2.213c-.169-.169-.328-.333-.492-.5-.318-.328-.651-.665-.979-.969A2.4,2.4,0,0,0,5.557,0,2.475,2.475,0,0,0,3.84.747l-1.8,1.8a3.706,3.706,0,0,0-1.1,2.373A8.925,8.925,0,0,0,1.6,8.781,22.444,22.444,0,0,0,5.61,15.47ZM2.109,5.025a2.551,2.551,0,0,1,.767-1.64L4.669,1.591a1.3,1.3,0,0,1,.887-.41,1.232,1.232,0,0,1,.868.42c.323.3.627.612.955.945.164.169.333.338.5.511L9.318,4.494a1.31,1.31,0,0,1,.453.9,1.31,1.31,0,0,1-.453.9c-.149.149-.3.3-.448.453C8.421,7.2,8,7.634,7.539,8.044l-.024.024a.943.943,0,0,0-.241,1.071c0,.014.01.024.014.039A11.349,11.349,0,0,0,8.981,11.93a19.284,19.284,0,0,0,4.649,4.234,6.9,6.9,0,0,0,.637.347,5.963,5.963,0,0,1,.53.289l.053.029a1.008,1.008,0,0,0,.468.121,1.023,1.023,0,0,0,.719-.328l1.8-1.8a1.276,1.276,0,0,1,.882-.429,1.211,1.211,0,0,1,.854.429l2.908,2.9a1.163,1.163,0,0,1-.014,1.818c-.2.217-.415.424-.641.641a13.887,13.887,0,0,0-1.008,1.046,2.648,2.648,0,0,1-2.069.878c-.082,0-.169,0-.251-.01a11.612,11.612,0,0,1-4.157-1.244,23.455,23.455,0,0,1-7.817-6.124,21.483,21.483,0,0,1-3.81-6.341A7.778,7.778,0,0,1,2.109,5.025Z" transform="translate(0 0)" fill="#ffd800"/>
  </g>
</svg>
